<?xml version="1.0" encoding="utf-8"?>
<!-- Generator: Adobe Illustrator 24.0.1, SVG Export Plug-In . SVG Version: 6.00 Build 0)  -->
<svg version="1.1" id="レイアウト" xmlns="http://www.w3.org/2000/svg" xmlns:xlink="http://www.w3.org/1999/xlink" x="0px"
	 y="0px" viewBox="0 0 311.8 49.8" style="enable-background:new 0 0 311.8 49.8;" xml:space="preserve">
<style type="text/css">
	.st0{fill:#FFFFFF;}
</style>
<g>
	<path class="st0" d="M97.9,13c7.2,0,13.7,0,14.1,0c1.3,0,2.2-0.2,2.9-0.9c0.8-0.8,0.9-1.8,0.9-1.8H97.6c0-7.1,0-2.8,0-6.3
		c0-1.1,0.4-1.8,0.7-2.2h-4.7c0,0,0-0.1,0,8.6H76.4v3.4c0.4-0.3,1.1-0.8,2.2-0.8c1.6,0,8.1,0,15,0c-0.4,9.1-5.3,21-18.4,29.1
		c0,0,1.1,0.9,2.8,2.5c4.8-3.3,14-9.4,17.8-24.6c3,12.3,10.5,19.8,17.6,24.7c1.6-1.7,2.4-2.5,2.4-2.5C110.9,38.8,100,30.5,97.9,13"
		/>
	<path class="st0" d="M244.8,13c7.2,0,13.7,0,14.1,0c1.3,0,2.1-0.2,2.9-0.9c0.8-0.8,0.9-1.8,0.9-1.8h-18.1c0-7.1,0-2.8,0-6.3
		c0-1.1,0.4-1.8,0.7-2.2h-4.7c0,0,0-0.1,0,8.6h-17.3v3.4c0.4-0.3,1.1-0.8,2.2-0.8c1.6,0,8.1,0,15,0c-0.4,9.1-5.3,21-18.4,29.1
		c0,0,1.1,0.9,2.8,2.5c4.8-3.3,13.9-9.4,17.7-24.6c3,12.3,10.4,19.8,17.6,24.7c1.6-1.7,2.4-2.5,2.4-2.5
		C257.7,38.8,246.9,30.5,244.8,13"/>
	<path class="st0" d="M147.6,25.8c0-2.6,0-5.3,0-7.8c5.3,0,9.9,0,10.3,0c1.2,0,2.1-0.2,2.8-0.8c0.9-0.8,0.9-1.7,0.9-1.7h-14
		c0-3.3,0-5.9,0-7.2c4.3-0.5,7.9-1.2,10.5-1.8c1.3-0.3,2.1-0.2,2.6,0.1l-1.2-3.4c0,0-8.2,2-14.3,2.5c-4.4,0.4-13.9,0.7-18.8-0.3
		c0,0-0.3,1,0.5,1.8c0.9,0.9,1.8,0.9,3.2,1.1c1.5,0.2,7.7,0.5,12.8,0.2c0.2,0,0.4,0,0.6,0c0,1.4,0,3.9,0,6.9h-16.1v3.3
		c0.4-0.3,1.1-0.8,2.2-0.8c0,0,6.9,0,13.9,0c0,2.5,0,5.3,0,7.8h-18.7V29c0.4-0.3,1.1-0.8,2.2-0.8c0,0,8.3,0,16.5,0
		c0,3.9,0,6.9,0,7.4c0,1.5,0.1,3.6-1.5,4.6c-2,1.3-5.9,0.8-7.5,0.4l0.9,2.9c0,0,3.6,0.1,6.1,0c1.9-0.1,6.1-1.2,6.1-5.5
		c0-0.4,0-4.7,0-9.9c6.3,0,11.6,0,11.9,0c1,0,2.1-0.2,2.8-0.8c0.9-0.8,0.9-1.7,0.9-1.7h-15.6"/>
	<path class="st0" d="M179.5,30.9V25h10.2c0,2.1,0,4.1,0,5.9H179.5 M189.6,16.4c0,1.6,0,3.8,0,6.2h-10.2v-6.2
		C179.4,16.4,189.6,16.4,189.6,16.4z M175.9,13.8v27.7c0,1.1-0.5,1.9-0.8,2.2h4.4V33.5h10.2c0,1.1,0,1.9,0,2.2
		c0,1.5,0.4,3.9-1.2,4.9c-1.6,1-3.6,0.6-5.1,0.2l0.9,2.9c0,0,1,0.2,3.6,0.1c1.1-0.1,5.4-0.7,5.4-5.4V13.8H175.9z"/>
	<path class="st0" d="M200.7,16.1c0-1.1,0.5-1.9,0.7-2.2h-4.2V36h3.5V16.1"/>
	<path class="st0" d="M205.6,36.9c0,2.5,0,3-2.1,4c-1.5,0.7-3.8,0.3-5.4-0.1l0.9,2.9c0,0,1.2,0.2,3.8,0.1c3.5-0.2,6.2-1.1,6.2-6.1
		V16.1c0-1.1,0.6-2,0.7-2.2h-4.2v23"/>
	<path class="st0" d="M212.2,7.8h-12.8l3.6-4.5l-3.3-1.6l-3.8,6.1h-6.2c-0.5-0.8-3-5.4-3.5-6.1l-3.4,1.6c0,0,2.8,3.8,3.3,4.6h-12.4
		v3.3c0.4-0.3,1.1-0.8,2.2-0.8c0,0,31.8,0,32.7,0c1,0,1.9-0.2,2.7-0.8C212.3,8.8,212.2,7.8,212.2,7.8"/>
	<path class="st0" d="M277.8,13h29.5v8.6h3.5v-9.1c0-1.1,0.6-1.9,0.7-2.2h-9.4l5.1-6.1l-3.3-2.3c0,0-3.8,6.1-4.6,7.3
		c-0.6,0.9-0.6,1-0.8,1.1h-5.1l1.7-1c0,0-3-6.9-3.5-7.5l-3.2,1.6c0,0,2.7,4.9,3.7,7h-8.5l1.9-1.1c0,0-3-6.2-3.5-6.6l-3.2,1.6
		c0,0,2.8,4.2,3.7,6.1h-8.2v11.4h3.3V13"/>
	<path class="st0" d="M294.8,28.4v-1.8l9-6.2v-3.7h-22.7v3.5c0.3-0.2,1.1-0.8,2.2-0.8h15.8l-6.2,4.9h-2.4c0.7,1.3,0.7,2.1,0.7,2.1
		s0,0.8,0,1.9h-17.8v3.3c0.3-0.2,1.1-0.8,2.2-0.8h15.6v7.1c0,2-1.7,3.1-3.5,3.1c-3.7,0-5.6-0.5-5.6-0.5l2,3c0,0,2.1,0,4.5,0
		c3.7,0,6.2-2.3,6.2-5.2v-7.6h13.5c0.9,0,1.8-0.1,2.6-0.8c0.9-0.8,0.9-1.7,0.9-1.7h-17"/>
	<path class="st0" d="M31.7,26.7c-0.4,0-0.5-1.3-0.5-1.3c-0.6-5.9-4.4-9.8-4.4-9.8c-1.8-1.6-1.5-2.9-1.5-2.9c0.8-3.6,4-6.5,6.4-6.5
		c2.3,0,5.6,2.8,6.4,6.5c0,0,0.3,1.3-1.5,2.9c0,0-3.8,3.8-4.4,9.8C32.1,25.4,32.1,26.7,31.7,26.7"/>
	<path class="st0" d="M31.7,49.8c17.5,0,31.7-11.2,31.7-25C63.4,12,51.2,1.5,35.5,0c0,0-0.8-0.2-0.9,0.5c-0.1,0.7,0.8,0.7,0.8,0.7
		c15.5,1.4,25.9,11.3,25.9,23.2c0,12.9-12.3,22.8-29.7,22.8C14.3,47.2,2,37.3,2,24.4c0-12,10.5-21.9,26-23.2c0,0,0.8,0,0.8-0.7
		C28.7-0.1,27.9,0,27.9,0C12.2,1.5,0,12,0,24.8C0,38.6,14.2,49.8,31.7,49.8"/>
	<path class="st0" d="M30.7,47.3c-0.8-8.9-12-12.2-12-12.2c-4-1.1-4.3-1.8-4.3-1.8C10,31.2,8.8,20.8,8.8,20.8s2.1,1.3,8.5,2.7
		c0,0,10.9,2.3,13.5,16.9c0,0,0.4,2,0.9,2s0.9-2,0.9-2c2.6-14.6,13.5-16.9,13.5-16.9c6.5-1.4,8.5-2.7,8.5-2.7S53.4,31.2,49,33.3
		c0,0-0.3,0.7-4.3,1.8c0,0-11.2,3.4-12,12.2"/>
	<path class="st0" d="M31.7,32.8c-0.5,0-0.8-2.4-0.8-2.4c-2.1-16.8-12.1-18.2-14.6-18.7c-3.9-0.7-6.3-2-6.3-2s0,9.3,4.8,11.2
		c1.4,0.6,1.7,0.5,3.6,1c2.8,0.9,10.4,4.2,12.8,14.8c0,0,0.2,0.9,0.5,0.9s0.5-0.9,0.5-0.9c2.4-10.6,10-14,12.8-14.8
		c1.6-0.5,2.4-0.6,3.6-1c4.8-1.9,4.8-11.2,4.8-11.2s-2.3,1.3-6.3,2c-2.5,0.4-12.5,1.9-14.6,18.7C32.4,30.4,32.2,32.8,31.7,32.8"/>
</g>
</svg>
